<svg width="999" height="399" viewBox="0 0 999 399" fill="none" xmlns="http://www.w3.org/2000/svg">
<rect width="999" height="399" rx="10" fill="white"/>
<path d="M240.618 178.364V182.455H228.793V178.364H240.618ZM231.477 173.659H236.923V191.966C236.923 192.469 237 192.861 237.153 193.142C237.307 193.415 237.52 193.607 237.793 193.717C238.074 193.828 238.398 193.884 238.764 193.884C239.02 193.884 239.276 193.862 239.531 193.82C239.787 193.768 239.983 193.73 240.119 193.705L240.976 197.757C240.703 197.842 240.32 197.94 239.825 198.051C239.331 198.17 238.73 198.243 238.023 198.268C236.71 198.32 235.56 198.145 234.571 197.744C233.591 197.344 232.828 196.722 232.283 195.878C231.737 195.034 231.469 193.969 231.477 192.682V173.659ZM250.033 186.648V198H244.587V171.818H249.88V181.828H250.11C250.553 180.669 251.269 179.761 252.258 179.105C253.246 178.44 254.487 178.108 255.978 178.108C257.342 178.108 258.531 178.406 259.545 179.003C260.567 179.591 261.36 180.439 261.923 181.547C262.494 182.646 262.775 183.963 262.766 185.497V198H257.32V186.469C257.329 185.259 257.022 184.317 256.4 183.643C255.786 182.97 254.925 182.634 253.817 182.634C253.076 182.634 252.42 182.791 251.849 183.107C251.286 183.422 250.843 183.882 250.519 184.487C250.204 185.084 250.042 185.804 250.033 186.648ZM276.001 198.384C273.981 198.384 272.243 197.974 270.785 197.156C269.336 196.33 268.22 195.162 267.436 193.653C266.652 192.136 266.26 190.342 266.26 188.271C266.26 186.251 266.652 184.479 267.436 182.953C268.22 181.428 269.324 180.239 270.747 179.386C272.179 178.534 273.858 178.108 275.784 178.108C277.079 178.108 278.285 178.317 279.402 178.734C280.527 179.143 281.507 179.761 282.342 180.588C283.186 181.415 283.842 182.455 284.311 183.707C284.779 184.952 285.014 186.409 285.014 188.08V189.575H268.433V186.2H279.887C279.887 185.416 279.717 184.722 279.376 184.116C279.035 183.511 278.562 183.038 277.957 182.697C277.36 182.348 276.666 182.173 275.873 182.173C275.047 182.173 274.314 182.365 273.674 182.749C273.044 183.124 272.549 183.631 272.191 184.27C271.833 184.901 271.65 185.604 271.642 186.379V189.588C271.642 190.56 271.821 191.399 272.179 192.107C272.545 192.814 273.061 193.359 273.725 193.743C274.39 194.126 275.179 194.318 276.091 194.318C276.696 194.318 277.25 194.233 277.752 194.062C278.255 193.892 278.686 193.636 279.044 193.295C279.402 192.955 279.674 192.537 279.862 192.043L284.899 192.375C284.643 193.585 284.119 194.642 283.326 195.545C282.542 196.44 281.528 197.139 280.284 197.642C279.048 198.136 277.62 198.384 276.001 198.384ZM305.746 205.773C303.982 205.773 302.469 205.53 301.208 205.044C299.955 204.567 298.958 203.915 298.217 203.088C297.475 202.261 296.994 201.332 296.772 200.301L301.809 199.624C301.962 200.016 302.205 200.382 302.538 200.723C302.87 201.064 303.309 201.337 303.854 201.541C304.408 201.754 305.082 201.861 305.874 201.861C307.059 201.861 308.035 201.571 308.802 200.991C309.577 200.42 309.965 199.462 309.965 198.115V194.523H309.735C309.496 195.068 309.138 195.584 308.661 196.07C308.184 196.555 307.57 196.952 306.82 197.259C306.07 197.565 305.175 197.719 304.136 197.719C302.661 197.719 301.319 197.378 300.109 196.696C298.907 196.006 297.948 194.953 297.232 193.538C296.525 192.115 296.171 190.317 296.171 188.143C296.171 185.919 296.533 184.061 297.258 182.57C297.982 181.078 298.945 179.962 300.147 179.22C301.357 178.479 302.683 178.108 304.123 178.108C305.222 178.108 306.143 178.295 306.884 178.67C307.626 179.037 308.222 179.497 308.674 180.051C309.134 180.597 309.488 181.134 309.735 181.662H309.94V178.364H315.347V198.192C315.347 199.862 314.938 201.26 314.12 202.385C313.302 203.51 312.168 204.354 310.719 204.916C309.279 205.487 307.621 205.773 305.746 205.773ZM305.862 193.628C306.739 193.628 307.481 193.411 308.086 192.976C308.7 192.533 309.168 191.902 309.492 191.084C309.825 190.257 309.991 189.268 309.991 188.118C309.991 186.967 309.829 185.97 309.505 185.126C309.181 184.274 308.712 183.614 308.099 183.145C307.485 182.676 306.739 182.442 305.862 182.442C304.967 182.442 304.212 182.685 303.599 183.17C302.985 183.648 302.521 184.312 302.205 185.165C301.89 186.017 301.732 187.001 301.732 188.118C301.732 189.251 301.89 190.232 302.205 191.058C302.529 191.876 302.994 192.511 303.599 192.963C304.212 193.406 304.967 193.628 305.862 193.628ZM328.63 198.384C326.61 198.384 324.871 197.974 323.414 197.156C321.965 196.33 320.849 195.162 320.065 193.653C319.281 192.136 318.888 190.342 318.888 188.271C318.888 186.251 319.281 184.479 320.065 182.953C320.849 181.428 321.952 180.239 323.376 179.386C324.808 178.534 326.487 178.108 328.413 178.108C329.708 178.108 330.914 178.317 332.031 178.734C333.156 179.143 334.136 179.761 334.971 180.588C335.815 181.415 336.471 182.455 336.94 183.707C337.408 184.952 337.643 186.409 337.643 188.08V189.575H321.062V186.2H332.516C332.516 185.416 332.346 184.722 332.005 184.116C331.664 183.511 331.191 183.038 330.586 182.697C329.989 182.348 329.295 182.173 328.502 182.173C327.675 182.173 326.942 182.365 326.303 182.749C325.673 183.124 325.178 183.631 324.82 184.27C324.462 184.901 324.279 185.604 324.271 186.379V189.588C324.271 190.56 324.45 191.399 324.808 192.107C325.174 192.814 325.69 193.359 326.354 193.743C327.019 194.126 327.808 194.318 328.719 194.318C329.325 194.318 329.879 194.233 330.381 194.062C330.884 193.892 331.315 193.636 331.673 193.295C332.031 192.955 332.303 192.537 332.491 192.043L337.528 192.375C337.272 193.585 336.748 194.642 335.955 195.545C335.171 196.44 334.157 197.139 332.913 197.642C331.677 198.136 330.249 198.384 328.63 198.384ZM346.643 186.648V198H341.197V178.364H346.387V181.828H346.617C347.052 180.686 347.781 179.783 348.803 179.118C349.826 178.445 351.066 178.108 352.523 178.108C353.887 178.108 355.076 178.406 356.09 179.003C357.104 179.599 357.893 180.452 358.455 181.56C359.018 182.659 359.299 183.972 359.299 185.497V198H353.853V186.469C353.862 185.267 353.555 184.33 352.933 183.656C352.31 182.974 351.454 182.634 350.363 182.634C349.63 182.634 348.982 182.791 348.42 183.107C347.866 183.422 347.431 183.882 347.116 184.487C346.809 185.084 346.651 185.804 346.643 186.648ZM372.54 198.384C370.52 198.384 368.782 197.974 367.324 197.156C365.875 196.33 364.759 195.162 363.975 193.653C363.191 192.136 362.799 190.342 362.799 188.271C362.799 186.251 363.191 184.479 363.975 182.953C364.759 181.428 365.863 180.239 367.286 179.386C368.718 178.534 370.397 178.108 372.323 178.108C373.618 178.108 374.824 178.317 375.941 178.734C377.066 179.143 378.046 179.761 378.881 180.588C379.725 181.415 380.381 182.455 380.85 183.707C381.319 184.952 381.553 186.409 381.553 188.08V189.575H364.972V186.2H376.426C376.426 185.416 376.256 184.722 375.915 184.116C375.574 183.511 375.101 183.038 374.496 182.697C373.9 182.348 373.205 182.173 372.412 182.173C371.586 182.173 370.853 182.365 370.213 182.749C369.583 183.124 369.088 183.631 368.73 184.27C368.373 184.901 368.189 185.604 368.181 186.379V189.588C368.181 190.56 368.36 191.399 368.718 192.107C369.084 192.814 369.6 193.359 370.265 193.743C370.929 194.126 371.718 194.318 372.63 194.318C373.235 194.318 373.789 194.233 374.292 194.062C374.794 193.892 375.225 193.636 375.583 193.295C375.941 192.955 376.213 192.537 376.401 192.043L381.438 192.375C381.182 193.585 380.658 194.642 379.865 195.545C379.081 196.44 378.067 197.139 376.823 197.642C375.587 198.136 374.159 198.384 372.54 198.384ZM385.107 198V178.364H390.387V181.79H390.591C390.949 180.571 391.55 179.651 392.394 179.028C393.238 178.398 394.209 178.082 395.309 178.082C395.581 178.082 395.875 178.099 396.191 178.134C396.506 178.168 396.783 178.214 397.022 178.274V183.107C396.766 183.03 396.412 182.962 395.961 182.902C395.509 182.842 395.096 182.812 394.721 182.812C393.919 182.812 393.203 182.987 392.573 183.337C391.951 183.678 391.456 184.155 391.09 184.768C390.732 185.382 390.553 186.089 390.553 186.891V198H385.107ZM404.874 198.371C403.621 198.371 402.505 198.153 401.525 197.719C400.545 197.276 399.769 196.624 399.198 195.763C398.636 194.893 398.354 193.811 398.354 192.516C398.354 191.425 398.555 190.509 398.955 189.767C399.356 189.026 399.901 188.429 400.592 187.977C401.282 187.526 402.066 187.185 402.944 186.955C403.83 186.724 404.759 186.562 405.731 186.469C406.873 186.349 407.793 186.239 408.492 186.136C409.191 186.026 409.698 185.864 410.013 185.651C410.329 185.437 410.487 185.122 410.487 184.705V184.628C410.487 183.818 410.231 183.192 409.719 182.749C409.217 182.305 408.501 182.084 407.572 182.084C406.592 182.084 405.812 182.301 405.232 182.736C404.653 183.162 404.269 183.699 404.082 184.347L399.045 183.938C399.3 182.744 399.803 181.713 400.553 180.844C401.303 179.966 402.271 179.293 403.455 178.824C404.648 178.347 406.029 178.108 407.597 178.108C408.688 178.108 409.732 178.236 410.729 178.491C411.735 178.747 412.626 179.143 413.401 179.68C414.185 180.217 414.803 180.908 415.255 181.751C415.707 182.587 415.933 183.588 415.933 184.756V198H410.768V195.277H410.614C410.299 195.891 409.877 196.432 409.349 196.901C408.82 197.361 408.185 197.723 407.444 197.987C406.702 198.243 405.846 198.371 404.874 198.371ZM406.434 194.612C407.235 194.612 407.942 194.455 408.556 194.139C409.17 193.815 409.651 193.381 410.001 192.835C410.35 192.29 410.525 191.672 410.525 190.982V188.898C410.354 189.009 410.12 189.111 409.822 189.205C409.532 189.29 409.204 189.371 408.837 189.447C408.471 189.516 408.104 189.58 407.738 189.639C407.371 189.69 407.039 189.737 406.741 189.78C406.102 189.874 405.543 190.023 405.066 190.227C404.589 190.432 404.218 190.709 403.954 191.058C403.69 191.399 403.558 191.825 403.558 192.337C403.558 193.078 403.826 193.645 404.363 194.037C404.908 194.42 405.599 194.612 406.434 194.612ZM425.604 171.818V198H420.158V171.818H425.604ZM438.401 198V171.818H443.847V181.662H444.013C444.251 181.134 444.597 180.597 445.048 180.051C445.509 179.497 446.105 179.037 446.838 178.67C447.58 178.295 448.5 178.108 449.599 178.108C451.031 178.108 452.352 178.483 453.562 179.233C454.773 179.974 455.74 181.095 456.464 182.595C457.189 184.087 457.551 185.957 457.551 188.207C457.551 190.398 457.197 192.247 456.49 193.756C455.791 195.256 454.837 196.393 453.626 197.169C452.425 197.936 451.078 198.32 449.587 198.32C448.53 198.32 447.631 198.145 446.889 197.795C446.156 197.446 445.555 197.007 445.087 196.479C444.618 195.942 444.26 195.401 444.013 194.855H443.77V198H438.401ZM443.732 188.182C443.732 189.349 443.893 190.368 444.217 191.237C444.541 192.107 445.01 192.784 445.624 193.27C446.237 193.747 446.983 193.986 447.861 193.986C448.747 193.986 449.497 193.743 450.111 193.257C450.724 192.763 451.189 192.081 451.504 191.212C451.828 190.334 451.99 189.324 451.99 188.182C451.99 187.048 451.832 186.051 451.517 185.19C451.202 184.33 450.737 183.656 450.124 183.17C449.51 182.685 448.756 182.442 447.861 182.442C446.974 182.442 446.224 182.676 445.611 183.145C445.006 183.614 444.541 184.278 444.217 185.139C443.893 186 443.732 187.014 443.732 188.182ZM466.784 198.371C465.532 198.371 464.415 198.153 463.435 197.719C462.455 197.276 461.679 196.624 461.108 195.763C460.546 194.893 460.265 193.811 460.265 192.516C460.265 191.425 460.465 190.509 460.865 189.767C461.266 189.026 461.811 188.429 462.502 187.977C463.192 187.526 463.976 187.185 464.854 186.955C465.74 186.724 466.669 186.562 467.641 186.469C468.783 186.349 469.703 186.239 470.402 186.136C471.101 186.026 471.608 185.864 471.924 185.651C472.239 185.437 472.397 185.122 472.397 184.705V184.628C472.397 183.818 472.141 183.192 471.63 182.749C471.127 182.305 470.411 182.084 469.482 182.084C468.502 182.084 467.722 182.301 467.142 182.736C466.563 183.162 466.179 183.699 465.992 184.347L460.955 183.938C461.211 182.744 461.713 181.713 462.463 180.844C463.213 179.966 464.181 179.293 465.365 178.824C466.559 178.347 467.939 178.108 469.507 178.108C470.598 178.108 471.642 178.236 472.64 178.491C473.645 178.747 474.536 179.143 475.311 179.68C476.096 180.217 476.713 180.908 477.165 181.751C477.617 182.587 477.843 183.588 477.843 184.756V198H472.678V195.277H472.525C472.209 195.891 471.787 196.432 471.259 196.901C470.73 197.361 470.096 197.723 469.354 197.987C468.613 198.243 467.756 198.371 466.784 198.371ZM468.344 194.612C469.145 194.612 469.853 194.455 470.466 194.139C471.08 193.815 471.561 193.381 471.911 192.835C472.26 192.29 472.435 191.672 472.435 190.982V188.898C472.265 189.009 472.03 189.111 471.732 189.205C471.442 189.29 471.114 189.371 470.748 189.447C470.381 189.516 470.015 189.58 469.648 189.639C469.282 189.69 468.949 189.737 468.651 189.78C468.012 189.874 467.453 190.023 466.976 190.227C466.499 190.432 466.128 190.709 465.864 191.058C465.6 191.399 465.468 191.825 465.468 192.337C465.468 193.078 465.736 193.645 466.273 194.037C466.819 194.42 467.509 194.612 468.344 194.612ZM490.94 198.384C488.929 198.384 487.199 197.957 485.75 197.105C484.309 196.244 483.201 195.051 482.426 193.526C481.659 192 481.275 190.244 481.275 188.259C481.275 186.247 481.663 184.483 482.439 182.966C483.223 181.44 484.335 180.251 485.775 179.399C487.216 178.538 488.929 178.108 490.914 178.108C492.627 178.108 494.127 178.419 495.414 179.041C496.701 179.663 497.72 180.537 498.47 181.662C499.22 182.787 499.633 184.108 499.71 185.625H494.571C494.426 184.645 494.042 183.857 493.42 183.26C492.806 182.655 492.001 182.352 491.004 182.352C490.16 182.352 489.423 182.582 488.792 183.043C488.17 183.494 487.684 184.155 487.335 185.024C486.985 185.893 486.811 186.946 486.811 188.182C486.811 189.435 486.981 190.5 487.322 191.378C487.672 192.256 488.162 192.925 488.792 193.385C489.423 193.845 490.16 194.075 491.004 194.075C491.626 194.075 492.184 193.947 492.679 193.692C493.181 193.436 493.595 193.065 493.919 192.58C494.251 192.085 494.468 191.493 494.571 190.803H499.71C499.625 192.303 499.216 193.624 498.483 194.766C497.758 195.899 496.757 196.786 495.478 197.425C494.2 198.064 492.687 198.384 490.94 198.384ZM508.131 192.349L508.144 185.817H508.937L515.227 178.364H521.478L513.028 188.233H511.737L508.131 192.349ZM503.197 198V171.818H508.643V198H503.197ZM515.469 198L509.691 189.447L513.322 185.599L521.849 198H515.469ZM532.29 198.384C530.27 198.384 528.532 197.974 527.074 197.156C525.625 196.33 524.509 195.162 523.725 193.653C522.941 192.136 522.549 190.342 522.549 188.271C522.549 186.251 522.941 184.479 523.725 182.953C524.509 181.428 525.613 180.239 527.036 179.386C528.468 178.534 530.147 178.108 532.073 178.108C533.368 178.108 534.574 178.317 535.691 178.734C536.816 179.143 537.796 179.761 538.631 180.588C539.475 181.415 540.131 182.455 540.6 183.707C541.069 184.952 541.303 186.409 541.303 188.08V189.575H524.722V186.2H536.176C536.176 185.416 536.006 184.722 535.665 184.116C535.324 183.511 534.851 183.038 534.246 182.697C533.65 182.348 532.955 182.173 532.162 182.173C531.336 182.173 530.603 182.365 529.963 182.749C529.333 183.124 528.838 183.631 528.48 184.27C528.123 184.901 527.939 185.604 527.931 186.379V189.588C527.931 190.56 528.11 191.399 528.468 192.107C528.834 192.814 529.35 193.359 530.015 193.743C530.679 194.126 531.468 194.318 532.38 194.318C532.985 194.318 533.539 194.233 534.042 194.062C534.544 193.892 534.975 193.636 535.333 193.295C535.691 192.955 535.963 192.537 536.151 192.043L541.188 192.375C540.932 193.585 540.408 194.642 539.615 195.545C538.831 196.44 537.817 197.139 536.573 197.642C535.337 198.136 533.909 198.384 532.29 198.384ZM550.303 186.648V198H544.857V178.364H550.047V181.828H550.277C550.712 180.686 551.441 179.783 552.463 179.118C553.486 178.445 554.726 178.108 556.184 178.108C557.547 178.108 558.736 178.406 559.75 179.003C560.765 179.599 561.553 180.452 562.115 181.56C562.678 182.659 562.959 183.972 562.959 185.497V198H557.513V186.469C557.522 185.267 557.215 184.33 556.593 183.656C555.971 182.974 555.114 182.634 554.023 182.634C553.29 182.634 552.642 182.791 552.08 183.107C551.526 183.422 551.091 183.882 550.776 184.487C550.469 185.084 550.311 185.804 550.303 186.648ZM574.487 198.32C572.996 198.32 571.645 197.936 570.435 197.169C569.233 196.393 568.278 195.256 567.571 193.756C566.872 192.247 566.523 190.398 566.523 188.207C566.523 185.957 566.885 184.087 567.609 182.595C568.334 181.095 569.297 179.974 570.499 179.233C571.709 178.483 573.034 178.108 574.474 178.108C575.574 178.108 576.49 178.295 577.223 178.67C577.964 179.037 578.561 179.497 579.013 180.051C579.473 180.597 579.822 181.134 580.061 181.662H580.227V171.818H585.661V198H580.291V194.855H580.061C579.805 195.401 579.443 195.942 578.974 196.479C578.514 197.007 577.913 197.446 577.172 197.795C576.439 198.145 575.544 198.32 574.487 198.32ZM576.213 193.986C577.091 193.986 577.832 193.747 578.438 193.27C579.051 192.784 579.52 192.107 579.844 191.237C580.176 190.368 580.342 189.349 580.342 188.182C580.342 187.014 580.18 186 579.857 185.139C579.533 184.278 579.064 183.614 578.45 183.145C577.837 182.676 577.091 182.442 576.213 182.442C575.318 182.442 574.564 182.685 573.95 183.17C573.337 183.656 572.872 184.33 572.557 185.19C572.241 186.051 572.084 187.048 572.084 188.182C572.084 189.324 572.241 190.334 572.557 191.212C572.881 192.081 573.345 192.763 573.95 193.257C574.564 193.743 575.318 193.986 576.213 193.986ZM614.808 183.963L609.822 184.27C609.737 183.844 609.554 183.46 609.273 183.119C608.991 182.77 608.621 182.493 608.161 182.288C607.709 182.075 607.168 181.969 606.537 181.969C605.693 181.969 604.982 182.148 604.402 182.506C603.822 182.855 603.533 183.324 603.533 183.912C603.533 184.381 603.72 184.777 604.095 185.101C604.47 185.425 605.114 185.685 606.026 185.881L609.58 186.597C611.489 186.989 612.912 187.619 613.849 188.489C614.787 189.358 615.256 190.5 615.256 191.915C615.256 193.202 614.876 194.331 614.118 195.303C613.368 196.274 612.337 197.033 611.024 197.578C609.72 198.115 608.216 198.384 606.511 198.384C603.912 198.384 601.841 197.842 600.298 196.76C598.764 195.669 597.865 194.186 597.601 192.311L602.957 192.03C603.119 192.822 603.511 193.428 604.134 193.845C604.756 194.254 605.553 194.459 606.524 194.459C607.479 194.459 608.246 194.276 608.825 193.909C609.413 193.534 609.712 193.053 609.72 192.464C609.712 191.97 609.503 191.565 609.094 191.25C608.685 190.926 608.054 190.679 607.202 190.509L603.801 189.831C601.884 189.447 600.456 188.783 599.518 187.837C598.589 186.891 598.125 185.685 598.125 184.219C598.125 182.957 598.466 181.871 599.148 180.959C599.838 180.047 600.805 179.344 602.05 178.849C603.303 178.355 604.768 178.108 606.447 178.108C608.928 178.108 610.879 178.632 612.303 179.68C613.734 180.729 614.57 182.156 614.808 183.963ZM627.634 198.384C625.614 198.384 623.875 197.974 622.418 197.156C620.969 196.33 619.853 195.162 619.069 193.653C618.284 192.136 617.892 190.342 617.892 188.271C617.892 186.251 618.284 184.479 619.069 182.953C619.853 181.428 620.956 180.239 622.38 179.386C623.811 178.534 625.49 178.108 627.417 178.108C628.712 178.108 629.918 178.317 631.034 178.734C632.159 179.143 633.14 179.761 633.975 180.588C634.819 181.415 635.475 182.455 635.944 183.707C636.412 184.952 636.647 186.409 636.647 188.08V189.575H620.066V186.2H631.52C631.52 185.416 631.35 184.722 631.009 184.116C630.668 183.511 630.195 183.038 629.59 182.697C628.993 182.348 628.299 182.173 627.506 182.173C626.679 182.173 625.946 182.365 625.307 182.749C624.676 183.124 624.182 183.631 623.824 184.27C623.466 184.901 623.283 185.604 623.275 186.379V189.588C623.275 190.56 623.453 191.399 623.811 192.107C624.178 192.814 624.694 193.359 625.358 193.743C626.023 194.126 626.811 194.318 627.723 194.318C628.328 194.318 628.882 194.233 629.385 194.062C629.888 193.892 630.319 193.636 630.676 193.295C631.034 192.955 631.307 192.537 631.495 192.043L636.532 192.375C636.276 193.585 635.752 194.642 634.959 195.545C634.175 196.44 633.161 197.139 631.917 197.642C630.681 198.136 629.253 198.384 627.634 198.384ZM640.201 198V178.364H645.48V181.79H645.685C646.043 180.571 646.644 179.651 647.488 179.028C648.331 178.398 649.303 178.082 650.402 178.082C650.675 178.082 650.969 178.099 651.284 178.134C651.6 178.168 651.877 178.214 652.115 178.274V183.107C651.86 183.03 651.506 182.962 651.054 182.902C650.603 182.842 650.189 182.812 649.814 182.812C649.013 182.812 648.297 182.987 647.667 183.337C647.044 183.678 646.55 184.155 646.184 184.768C645.826 185.382 645.647 186.089 645.647 186.891V198H640.201ZM673.836 178.364L666.971 198H660.834L653.969 178.364H659.722L663.8 192.413H664.005L668.07 178.364H673.836ZM684.939 198.384C682.919 198.384 681.18 197.974 679.723 197.156C678.274 196.33 677.157 195.162 676.373 193.653C675.589 192.136 675.197 190.342 675.197 188.271C675.197 186.251 675.589 184.479 676.373 182.953C677.157 181.428 678.261 180.239 679.684 179.386C681.116 178.534 682.795 178.108 684.721 178.108C686.017 178.108 687.223 178.317 688.339 178.734C689.464 179.143 690.444 179.761 691.279 180.588C692.123 181.415 692.779 182.455 693.248 183.707C693.717 184.952 693.951 186.409 693.951 188.08V189.575H677.37V186.2H688.825C688.825 185.416 688.654 184.722 688.314 184.116C687.973 183.511 687.5 183.038 686.895 182.697C686.298 182.348 685.603 182.173 684.811 182.173C683.984 182.173 683.251 182.365 682.612 182.749C681.981 183.124 681.487 183.631 681.129 184.27C680.771 184.901 680.588 185.604 680.579 186.379V189.588C680.579 190.56 680.758 191.399 681.116 192.107C681.483 192.814 681.998 193.359 682.663 193.743C683.328 194.126 684.116 194.318 685.028 194.318C685.633 194.318 686.187 194.233 686.69 194.062C687.193 193.892 687.623 193.636 687.981 193.295C688.339 192.955 688.612 192.537 688.799 192.043L693.836 192.375C693.581 193.585 693.056 194.642 692.264 195.545C691.48 196.44 690.466 197.139 689.221 197.642C687.985 198.136 686.558 198.384 684.939 198.384ZM697.505 198V178.364H702.785V181.79H702.99C703.348 180.571 703.949 179.651 704.792 179.028C705.636 178.398 706.608 178.082 707.707 178.082C707.98 178.082 708.274 178.099 708.589 178.134C708.904 178.168 709.181 178.214 709.42 178.274V183.107C709.164 183.03 708.811 182.962 708.359 182.902C707.907 182.842 707.494 182.812 707.119 182.812C706.318 182.812 705.602 182.987 704.971 183.337C704.349 183.678 703.855 184.155 703.488 184.768C703.13 185.382 702.951 186.089 702.951 186.891V198H697.505Z" fill="black"/>
<path d="M230.634 222.636C230.634 220.591 230.892 218.659 231.409 216.841C231.926 215.023 232.668 213.318 233.634 211.727H235.014C234.599 212.398 234.219 213.156 233.872 214.003C233.531 214.849 233.236 215.753 232.986 216.713C232.736 217.673 232.543 218.656 232.406 219.662C232.27 220.662 232.202 221.653 232.202 222.636C232.202 223.949 232.321 225.273 232.56 226.608C232.798 227.943 233.128 229.21 233.548 230.409C233.974 231.608 234.463 232.653 235.014 233.545H233.634C232.668 231.949 231.926 230.241 231.409 228.423C230.892 226.605 230.634 224.676 230.634 222.636ZM238.34 230V216.909H239.866V230H238.34ZM239.116 214.659C238.803 214.659 238.536 214.554 238.315 214.344C238.093 214.128 237.982 213.869 237.982 213.568C237.982 213.267 238.093 213.011 238.315 212.801C238.536 212.585 238.803 212.477 239.116 212.477C239.428 212.477 239.695 212.585 239.917 212.801C240.138 213.011 240.249 213.267 240.249 213.568C240.249 213.869 240.138 214.128 239.917 214.344C239.695 214.554 239.428 214.659 239.116 214.659ZM249.034 216.909V218.23H242.787V216.909H249.034ZM244.739 213.773H246.264V226.582C246.264 227.128 246.358 227.557 246.545 227.869C246.733 228.176 246.977 228.395 247.278 228.526C247.58 228.651 247.901 228.713 248.241 228.713C248.44 228.713 248.611 228.702 248.753 228.679C248.895 228.651 249.02 228.622 249.128 228.594L249.452 229.966C249.304 230.023 249.122 230.074 248.906 230.119C248.69 230.17 248.423 230.196 248.105 230.196C247.548 230.196 247.011 230.074 246.494 229.83C245.983 229.585 245.563 229.222 245.233 228.739C244.903 228.256 244.739 227.656 244.739 226.94V213.773ZM259.229 234.909V216.909H260.704V219.406H260.883C261.065 219.014 261.315 218.614 261.633 218.205C261.951 217.79 262.371 217.44 262.894 217.156C263.423 216.872 264.087 216.73 264.888 216.73C265.968 216.73 266.911 217.014 267.718 217.582C268.531 218.145 269.161 218.935 269.61 219.952C270.065 220.963 270.292 222.142 270.292 223.489C270.292 224.841 270.065 226.026 269.61 227.043C269.161 228.06 268.531 228.852 267.718 229.42C266.911 229.989 265.974 230.273 264.906 230.273C264.116 230.273 263.454 230.131 262.92 229.847C262.391 229.562 261.962 229.213 261.633 228.798C261.309 228.378 261.059 227.969 260.883 227.571H260.746V234.909H259.229ZM260.729 223.463C260.729 224.52 260.886 225.457 261.198 226.276C261.516 227.088 261.971 227.727 262.562 228.193C263.158 228.653 263.88 228.884 264.727 228.884C265.596 228.884 266.329 228.645 266.925 228.168C267.528 227.685 267.985 227.034 268.298 226.216C268.616 225.398 268.775 224.48 268.775 223.463C268.775 222.457 268.619 221.551 268.306 220.744C267.999 219.937 267.545 219.298 266.942 218.827C266.34 218.349 265.602 218.111 264.727 218.111C263.874 218.111 263.15 218.341 262.553 218.801C261.957 219.256 261.502 219.886 261.19 220.693C260.883 221.494 260.729 222.418 260.729 223.463ZM278.708 230.273C277.577 230.273 276.577 229.986 275.708 229.412C274.844 228.838 274.168 228.045 273.68 227.034C273.191 226.017 272.947 224.844 272.947 223.514C272.947 222.173 273.191 220.994 273.68 219.977C274.168 218.955 274.844 218.159 275.708 217.591C276.577 217.017 277.577 216.73 278.708 216.73C279.839 216.73 280.836 217.017 281.7 217.591C282.563 218.165 283.239 218.96 283.728 219.977C284.222 220.994 284.469 222.173 284.469 223.514C284.469 224.844 284.225 226.017 283.737 227.034C283.248 228.045 282.569 228.838 281.7 229.412C280.836 229.986 279.839 230.273 278.708 230.273ZM278.708 228.884C279.617 228.884 280.387 228.639 281.018 228.151C281.648 227.662 282.126 227.011 282.45 226.199C282.779 225.386 282.944 224.491 282.944 223.514C282.944 222.537 282.779 221.639 282.45 220.821C282.126 220.003 281.648 219.347 281.018 218.852C280.387 218.358 279.617 218.111 278.708 218.111C277.805 218.111 277.035 218.358 276.398 218.852C275.768 219.347 275.288 220.003 274.958 220.821C274.634 221.639 274.472 222.537 274.472 223.514C274.472 224.491 274.634 225.386 274.958 226.199C275.288 227.011 275.768 227.662 276.398 228.151C277.029 228.639 277.799 228.884 278.708 228.884ZM290.261 230L286.306 216.909H287.908L291.011 227.707H291.121L294.215 216.909H295.826L298.894 227.682H299.013L302.116 216.909H303.718L299.763 230H298.195L295.093 219.27H294.931L291.829 230H290.261ZM311.514 230.273C310.293 230.273 309.236 229.989 308.344 229.42C307.452 228.847 306.761 228.054 306.273 227.043C305.79 226.026 305.548 224.855 305.548 223.531C305.548 222.213 305.79 221.043 306.273 220.02C306.761 218.991 307.435 218.187 308.293 217.608C309.156 217.023 310.153 216.73 311.284 216.73C311.994 216.73 312.679 216.861 313.338 217.122C313.997 217.378 314.588 217.773 315.111 218.307C315.639 218.835 316.057 219.503 316.364 220.31C316.67 221.111 316.824 222.06 316.824 223.156V223.906H306.597V222.568H315.273C315.273 221.727 315.102 220.972 314.761 220.301C314.426 219.625 313.957 219.091 313.355 218.699C312.759 218.307 312.068 218.111 311.284 218.111C310.455 218.111 309.724 218.332 309.094 218.776C308.463 219.219 307.969 219.804 307.611 220.531C307.259 221.259 307.08 222.054 307.074 222.918V223.719C307.074 224.759 307.253 225.668 307.611 226.446C307.974 227.219 308.489 227.818 309.153 228.244C309.818 228.67 310.605 228.884 311.514 228.884C312.134 228.884 312.676 228.787 313.142 228.594C313.614 228.401 314.009 228.142 314.327 227.818C314.651 227.489 314.895 227.128 315.06 226.736L316.5 227.205C316.301 227.756 315.974 228.264 315.52 228.73C315.071 229.196 314.509 229.571 313.832 229.855C313.162 230.134 312.389 230.273 311.514 230.273ZM320.167 230V216.909H321.641V218.92H321.752C322.013 218.261 322.468 217.73 323.116 217.327C323.769 216.918 324.508 216.713 325.332 216.713C325.457 216.713 325.596 216.716 325.749 216.722C325.903 216.727 326.031 216.733 326.133 216.739V218.281C326.065 218.27 325.945 218.253 325.775 218.23C325.604 218.207 325.42 218.196 325.221 218.196C324.539 218.196 323.931 218.341 323.397 218.631C322.869 218.915 322.451 219.31 322.144 219.815C321.837 220.321 321.684 220.898 321.684 221.545V230H320.167ZM337.517 219.781L336.128 220.173C335.991 219.781 335.798 219.426 335.548 219.108C335.298 218.79 334.972 218.537 334.568 218.349C334.17 218.162 333.676 218.068 333.085 218.068C332.199 218.068 331.472 218.278 330.903 218.699C330.335 219.119 330.051 219.662 330.051 220.327C330.051 220.889 330.244 221.347 330.631 221.699C331.023 222.045 331.625 222.321 332.438 222.526L334.415 223.011C335.511 223.278 336.332 223.702 336.878 224.281C337.429 224.861 337.705 225.588 337.705 226.463C337.705 227.202 337.5 227.858 337.091 228.432C336.682 229.006 336.111 229.457 335.378 229.787C334.651 230.111 333.807 230.273 332.847 230.273C331.568 230.273 330.514 229.986 329.685 229.412C328.855 228.832 328.324 227.997 328.091 226.906L329.548 226.548C329.736 227.327 330.102 227.915 330.648 228.312C331.199 228.71 331.923 228.909 332.821 228.909C333.827 228.909 334.631 228.685 335.233 228.236C335.835 227.781 336.136 227.213 336.136 226.531C336.136 226.003 335.96 225.56 335.608 225.202C335.256 224.838 334.722 224.571 334.006 224.401L331.866 223.889C330.73 223.616 329.889 223.185 329.344 222.594C328.798 222.003 328.526 221.27 328.526 220.395C328.526 219.673 328.722 219.04 329.114 218.494C329.506 217.943 330.045 217.511 330.733 217.199C331.42 216.886 332.205 216.73 333.085 216.73C334.284 216.73 335.241 217.003 335.957 217.548C336.679 218.088 337.199 218.832 337.517 219.781ZM352.933 216.909V218.23H346.685V216.909H352.933ZM348.637 213.773H350.163V226.582C350.163 227.128 350.256 227.557 350.444 227.869C350.631 228.176 350.876 228.395 351.177 228.526C351.478 228.651 351.799 228.713 352.14 228.713C352.339 228.713 352.509 228.702 352.651 228.679C352.793 228.651 352.918 228.622 353.026 228.594L353.35 229.966C353.202 230.023 353.021 230.074 352.805 230.119C352.589 230.17 352.322 230.196 352.004 230.196C351.447 230.196 350.91 230.074 350.393 229.83C349.881 229.585 349.461 229.222 349.131 228.739C348.802 228.256 348.637 227.656 348.637 226.94V213.773ZM358.176 221.818V230H356.659V212.545H358.176V218.963H358.312C358.619 218.287 359.094 217.747 359.736 217.344C360.384 216.94 361.202 216.739 362.19 216.739C363.077 216.739 363.855 216.92 364.526 217.284C365.196 217.648 365.719 218.185 366.094 218.895C366.469 219.605 366.656 220.48 366.656 221.52V230H365.131V221.614C365.131 220.534 364.83 219.685 364.227 219.065C363.631 218.44 362.824 218.128 361.807 218.128C361.108 218.128 360.486 218.276 359.94 218.571C359.395 218.866 358.963 219.293 358.645 219.849C358.332 220.401 358.176 221.057 358.176 221.818ZM375.944 230.273C374.722 230.273 373.665 229.989 372.773 229.42C371.881 228.847 371.191 228.054 370.702 227.043C370.219 226.026 369.978 224.855 369.978 223.531C369.978 222.213 370.219 221.043 370.702 220.02C371.191 218.991 371.864 218.187 372.722 217.608C373.586 217.023 374.583 216.73 375.714 216.73C376.424 216.73 377.109 216.861 377.768 217.122C378.427 217.378 379.018 217.773 379.54 218.307C380.069 218.835 380.487 219.503 380.793 220.31C381.1 221.111 381.254 222.06 381.254 223.156V223.906H371.026V222.568H379.702C379.702 221.727 379.532 220.972 379.191 220.301C378.856 219.625 378.387 219.091 377.785 218.699C377.188 218.307 376.498 218.111 375.714 218.111C374.884 218.111 374.154 218.332 373.523 218.776C372.893 219.219 372.398 219.804 372.04 220.531C371.688 221.259 371.509 222.054 371.504 222.918V223.719C371.504 224.759 371.683 225.668 372.04 226.446C372.404 227.219 372.918 227.818 373.583 228.244C374.248 228.67 375.035 228.884 375.944 228.884C376.563 228.884 377.106 228.787 377.572 228.594C378.043 228.401 378.438 228.142 378.756 227.818C379.08 227.489 379.325 227.128 379.489 226.736L380.93 227.205C380.731 227.756 380.404 228.264 379.95 228.73C379.501 229.196 378.938 229.571 378.262 229.855C377.592 230.134 376.819 230.273 375.944 230.273ZM396.733 216.909V218.23H390.298V216.909H396.733ZM392.31 230V214.991C392.31 214.287 392.472 213.693 392.795 213.21C393.125 212.727 393.554 212.361 394.082 212.111C394.611 211.861 395.17 211.736 395.761 211.736C396.159 211.736 396.489 211.77 396.75 211.838C397.017 211.901 397.227 211.963 397.381 212.026L396.938 213.355C396.824 213.321 396.685 213.281 396.52 213.236C396.355 213.19 396.148 213.168 395.898 213.168C395.239 213.168 394.73 213.352 394.372 213.722C394.014 214.091 393.835 214.619 393.835 215.307L393.827 230H392.31ZM403.065 230.298C402.276 230.298 401.554 230.145 400.901 229.838C400.247 229.526 399.727 229.077 399.341 228.491C398.955 227.901 398.761 227.185 398.761 226.344C398.761 225.696 398.884 225.151 399.128 224.707C399.372 224.264 399.719 223.901 400.168 223.616C400.616 223.332 401.148 223.108 401.761 222.943C402.375 222.778 403.051 222.651 403.79 222.56C404.523 222.469 405.142 222.389 405.648 222.321C406.159 222.253 406.548 222.145 406.815 221.997C407.082 221.849 407.216 221.611 407.216 221.281V220.974C407.216 220.082 406.949 219.381 406.415 218.869C405.886 218.352 405.125 218.094 404.131 218.094C403.188 218.094 402.418 218.301 401.821 218.716C401.23 219.131 400.815 219.619 400.577 220.182L399.136 219.662C399.432 218.946 399.841 218.375 400.364 217.949C400.886 217.517 401.472 217.207 402.119 217.02C402.767 216.827 403.423 216.73 404.088 216.73C404.588 216.73 405.108 216.795 405.648 216.926C406.193 217.057 406.699 217.284 407.165 217.608C407.631 217.926 408.009 218.372 408.298 218.946C408.588 219.514 408.733 220.236 408.733 221.111V230H407.216V227.929H407.122C406.94 228.315 406.67 228.69 406.312 229.054C405.955 229.418 405.506 229.716 404.966 229.949C404.426 230.182 403.793 230.298 403.065 230.298ZM403.27 228.909C404.077 228.909 404.776 228.73 405.366 228.372C405.957 228.014 406.412 227.54 406.73 226.949C407.054 226.352 407.216 225.696 407.216 224.98V223.088C407.102 223.196 406.912 223.293 406.645 223.378C406.384 223.463 406.08 223.54 405.733 223.608C405.392 223.67 405.051 223.724 404.71 223.77C404.369 223.815 404.062 223.855 403.79 223.889C403.051 223.98 402.42 224.122 401.898 224.315C401.375 224.509 400.974 224.776 400.696 225.116C400.418 225.452 400.278 225.884 400.278 226.412C400.278 227.207 400.562 227.824 401.131 228.261C401.699 228.693 402.412 228.909 403.27 228.909ZM412.786 230V216.909H414.311V230H412.786ZM413.561 214.659C413.249 214.659 412.982 214.554 412.76 214.344C412.538 214.128 412.428 213.869 412.428 213.568C412.428 213.267 412.538 213.011 412.76 212.801C412.982 212.585 413.249 212.477 413.561 212.477C413.874 212.477 414.141 212.585 414.362 212.801C414.584 213.011 414.695 213.267 414.695 213.568C414.695 213.869 414.584 214.128 414.362 214.344C414.141 214.554 413.874 214.659 413.561 214.659ZM418.323 230V216.909H419.798V218.92H419.908C420.17 218.261 420.624 217.73 421.272 217.327C421.925 216.918 422.664 216.713 423.488 216.713C423.613 216.713 423.752 216.716 423.906 216.722C424.059 216.727 424.187 216.733 424.289 216.739V218.281C424.221 218.27 424.102 218.253 423.931 218.23C423.761 218.207 423.576 218.196 423.377 218.196C422.695 218.196 422.087 218.341 421.553 218.631C421.025 218.915 420.607 219.31 420.3 219.815C419.994 220.321 419.84 220.898 419.84 221.545V230H418.323ZM433.085 216.909V218.23H426.65V216.909H433.085ZM428.661 230V214.991C428.661 214.287 428.823 213.693 429.147 213.21C429.477 212.727 429.906 212.361 430.434 212.111C430.962 211.861 431.522 211.736 432.113 211.736C432.511 211.736 432.84 211.77 433.102 211.838C433.369 211.901 433.579 211.963 433.732 212.026L433.289 213.355C433.175 213.321 433.036 213.281 432.871 213.236C432.707 213.19 432.499 213.168 432.249 213.168C431.59 213.168 431.082 213.352 430.724 213.722C430.366 214.091 430.187 214.619 430.187 215.307L430.178 230H428.661ZM436.129 230V216.909H437.655V230H436.129ZM436.905 214.659C436.592 214.659 436.325 214.554 436.104 214.344C435.882 214.128 435.771 213.869 435.771 213.568C435.771 213.267 435.882 213.011 436.104 212.801C436.325 212.585 436.592 212.477 436.905 212.477C437.217 212.477 437.484 212.585 437.706 212.801C437.928 213.011 438.038 213.267 438.038 213.568C438.038 213.869 437.928 214.128 437.706 214.344C437.484 214.554 437.217 214.659 436.905 214.659ZM446.96 230.273C445.738 230.273 444.681 229.989 443.789 229.42C442.897 228.847 442.207 228.054 441.718 227.043C441.235 226.026 440.994 224.855 440.994 223.531C440.994 222.213 441.235 221.043 441.718 220.02C442.207 218.991 442.88 218.187 443.738 217.608C444.602 217.023 445.599 216.73 446.729 216.73C447.44 216.73 448.124 216.861 448.783 217.122C449.442 217.378 450.033 217.773 450.556 218.307C451.085 218.835 451.502 219.503 451.809 220.31C452.116 221.111 452.269 222.06 452.269 223.156V223.906H442.042V222.568H450.718C450.718 221.727 450.548 220.972 450.207 220.301C449.871 219.625 449.403 219.091 448.8 218.699C448.204 218.307 447.513 218.111 446.729 218.111C445.9 218.111 445.17 218.332 444.539 218.776C443.908 219.219 443.414 219.804 443.056 220.531C442.704 221.259 442.525 222.054 442.519 222.918V223.719C442.519 224.759 442.698 225.668 443.056 226.446C443.42 227.219 443.934 227.818 444.599 228.244C445.263 228.67 446.05 228.884 446.96 228.884C447.579 228.884 448.121 228.787 448.587 228.594C449.059 228.401 449.454 228.142 449.772 227.818C450.096 227.489 450.34 227.128 450.505 226.736L451.945 227.205C451.746 227.756 451.42 228.264 450.965 228.73C450.516 229.196 449.954 229.571 449.278 229.855C448.607 230.134 447.835 230.273 446.96 230.273ZM457.129 212.545V230H455.612V212.545H457.129ZM465.857 230.273C464.783 230.273 463.842 229.989 463.036 229.42C462.229 228.852 461.598 228.06 461.143 227.043C460.695 226.026 460.47 224.841 460.47 223.489C460.47 222.142 460.695 220.963 461.143 219.952C461.598 218.935 462.232 218.145 463.044 217.582C463.857 217.014 464.803 216.73 465.882 216.73C466.678 216.73 467.339 216.872 467.868 217.156C468.396 217.435 468.82 217.781 469.138 218.196C469.456 218.611 469.703 219.014 469.879 219.406H470.016V212.545H471.541V230H470.058V227.571H469.879C469.703 227.969 469.453 228.378 469.129 228.798C468.805 229.213 468.376 229.562 467.842 229.847C467.314 230.131 466.652 230.273 465.857 230.273ZM466.036 228.884C466.882 228.884 467.604 228.653 468.2 228.193C468.797 227.727 469.251 227.088 469.564 226.276C469.882 225.457 470.041 224.52 470.041 223.463C470.041 222.418 469.885 221.494 469.572 220.693C469.26 219.886 468.805 219.256 468.209 218.801C467.612 218.341 466.888 218.111 466.036 218.111C465.161 218.111 464.422 218.349 463.82 218.827C463.223 219.298 462.768 219.937 462.456 220.744C462.149 221.551 461.996 222.457 461.996 223.463C461.996 224.48 462.152 225.398 462.464 226.216C462.777 227.034 463.232 227.685 463.828 228.168C464.43 228.645 465.166 228.884 466.036 228.884ZM482.612 234.909V216.909H484.087V219.406H484.266C484.447 219.014 484.697 218.614 485.016 218.205C485.334 217.79 485.754 217.44 486.277 217.156C486.805 216.872 487.47 216.73 488.271 216.73C489.351 216.73 490.294 217.014 491.101 217.582C491.913 218.145 492.544 218.935 492.993 219.952C493.447 220.963 493.675 222.142 493.675 223.489C493.675 224.841 493.447 226.026 492.993 227.043C492.544 228.06 491.913 228.852 491.101 229.42C490.294 229.989 489.357 230.273 488.288 230.273C487.499 230.273 486.837 230.131 486.303 229.847C485.774 229.562 485.345 229.213 485.016 228.798C484.692 228.378 484.442 227.969 484.266 227.571H484.129V234.909H482.612ZM484.112 223.463C484.112 224.52 484.268 225.457 484.581 226.276C484.899 227.088 485.354 227.727 485.945 228.193C486.541 228.653 487.263 228.884 488.109 228.884C488.979 228.884 489.712 228.645 490.308 228.168C490.911 227.685 491.368 227.034 491.68 226.216C491.999 225.398 492.158 224.48 492.158 223.463C492.158 222.457 492.001 221.551 491.689 220.744C491.382 219.937 490.928 219.298 490.325 218.827C489.723 218.349 488.984 218.111 488.109 218.111C487.257 218.111 486.533 218.341 485.936 218.801C485.339 219.256 484.885 219.886 484.572 220.693C484.266 221.494 484.112 222.418 484.112 223.463ZM497.003 230V216.909H498.477V218.92H498.588C498.849 218.261 499.304 217.73 499.952 217.327C500.605 216.918 501.344 216.713 502.168 216.713C502.293 216.713 502.432 216.716 502.585 216.722C502.739 216.727 502.866 216.733 502.969 216.739V218.281C502.901 218.27 502.781 218.253 502.611 218.23C502.44 218.207 502.256 218.196 502.057 218.196C501.375 218.196 500.767 218.341 500.233 218.631C499.705 218.915 499.287 219.31 498.98 219.815C498.673 220.321 498.52 220.898 498.52 221.545V230H497.003ZM510.247 230.273C509.116 230.273 508.116 229.986 507.247 229.412C506.384 228.838 505.707 228.045 505.219 227.034C504.73 226.017 504.486 224.844 504.486 223.514C504.486 222.173 504.73 220.994 505.219 219.977C505.707 218.955 506.384 218.159 507.247 217.591C508.116 217.017 509.116 216.73 510.247 216.73C511.378 216.73 512.375 217.017 513.239 217.591C514.102 218.165 514.778 218.96 515.267 219.977C515.761 220.994 516.009 222.173 516.009 223.514C516.009 224.844 515.764 226.017 515.276 227.034C514.787 228.045 514.108 228.838 513.239 229.412C512.375 229.986 511.378 230.273 510.247 230.273ZM510.247 228.884C511.156 228.884 511.926 228.639 512.557 228.151C513.188 227.662 513.665 227.011 513.989 226.199C514.318 225.386 514.483 224.491 514.483 223.514C514.483 222.537 514.318 221.639 513.989 220.821C513.665 220.003 513.188 219.347 512.557 218.852C511.926 218.358 511.156 218.111 510.247 218.111C509.344 218.111 508.574 218.358 507.938 218.852C507.307 219.347 506.827 220.003 506.497 220.821C506.173 221.639 506.011 222.537 506.011 223.514C506.011 224.491 506.173 225.386 506.497 226.199C506.827 227.011 507.307 227.662 507.938 228.151C508.568 228.639 509.338 228.884 510.247 228.884ZM524.333 235.182C523.441 235.182 522.66 235.065 521.989 234.832C521.319 234.605 520.754 234.293 520.293 233.895C519.833 233.497 519.475 233.051 519.219 232.557L520.464 231.739C520.651 232.068 520.901 232.392 521.214 232.71C521.532 233.028 521.944 233.293 522.45 233.503C522.961 233.713 523.589 233.818 524.333 233.818C525.492 233.818 526.427 233.528 527.137 232.949C527.853 232.369 528.211 231.469 528.211 230.247V227.298H528.075C527.898 227.696 527.646 228.094 527.316 228.491C526.987 228.884 526.555 229.21 526.021 229.472C525.492 229.733 524.836 229.864 524.052 229.864C523.006 229.864 522.077 229.605 521.265 229.088C520.458 228.571 519.822 227.832 519.356 226.872C518.896 225.906 518.665 224.756 518.665 223.42C518.665 222.097 518.89 220.932 519.339 219.926C519.793 218.92 520.427 218.136 521.239 217.574C522.052 217.011 522.998 216.73 524.077 216.73C524.879 216.73 525.543 216.872 526.072 217.156C526.6 217.435 527.023 217.781 527.342 218.196C527.665 218.611 527.918 219.014 528.1 219.406H528.254V216.909H529.737V230.341C529.737 231.449 529.501 232.361 529.029 233.077C528.558 233.793 527.915 234.321 527.103 234.662C526.29 235.009 525.367 235.182 524.333 235.182ZM524.231 228.474C525.072 228.474 525.79 228.273 526.387 227.869C526.984 227.46 527.441 226.875 527.759 226.114C528.077 225.352 528.237 224.446 528.237 223.395C528.237 222.372 528.08 221.466 527.768 220.676C527.455 219.881 527.001 219.256 526.404 218.801C525.813 218.341 525.089 218.111 524.231 218.111C523.356 218.111 522.617 218.347 522.015 218.818C521.413 219.29 520.958 219.926 520.651 220.727C520.344 221.523 520.191 222.412 520.191 223.395C520.191 224.395 520.347 225.278 520.66 226.045C520.972 226.807 521.43 227.403 522.032 227.835C522.634 228.261 523.367 228.474 524.231 228.474ZM533.753 230V216.909H535.227V218.92H535.338C535.599 218.261 536.054 217.73 536.702 217.327C537.355 216.918 538.094 216.713 538.918 216.713C539.043 216.713 539.182 216.716 539.335 216.722C539.489 216.727 539.616 216.733 539.719 216.739V218.281C539.651 218.27 539.531 218.253 539.361 218.23C539.19 218.207 539.006 218.196 538.807 218.196C538.125 218.196 537.517 218.341 536.983 218.631C536.455 218.915 536.037 219.31 535.73 219.815C535.423 220.321 535.27 220.898 535.27 221.545V230H533.753ZM545.964 230.298C545.174 230.298 544.452 230.145 543.799 229.838C543.146 229.526 542.626 229.077 542.239 228.491C541.853 227.901 541.66 227.185 541.66 226.344C541.66 225.696 541.782 225.151 542.026 224.707C542.271 224.264 542.617 223.901 543.066 223.616C543.515 223.332 544.046 223.108 544.66 222.943C545.273 222.778 545.95 222.651 546.688 222.56C547.421 222.469 548.04 222.389 548.546 222.321C549.058 222.253 549.447 222.145 549.714 221.997C549.981 221.849 550.114 221.611 550.114 221.281V220.974C550.114 220.082 549.847 219.381 549.313 218.869C548.785 218.352 548.023 218.094 547.029 218.094C546.086 218.094 545.316 218.301 544.719 218.716C544.129 219.131 543.714 219.619 543.475 220.182L542.035 219.662C542.33 218.946 542.739 218.375 543.262 217.949C543.785 217.517 544.37 217.207 545.018 217.02C545.665 216.827 546.322 216.73 546.987 216.73C547.487 216.73 548.006 216.795 548.546 216.926C549.092 217.057 549.597 217.284 550.063 217.608C550.529 217.926 550.907 218.372 551.197 218.946C551.487 219.514 551.631 220.236 551.631 221.111V230H550.114V227.929H550.021C549.839 228.315 549.569 228.69 549.211 229.054C548.853 229.418 548.404 229.716 547.864 229.949C547.325 230.182 546.691 230.298 545.964 230.298ZM546.168 228.909C546.975 228.909 547.674 228.73 548.265 228.372C548.856 228.014 549.31 227.54 549.629 226.949C549.952 226.352 550.114 225.696 550.114 224.98V223.088C550.001 223.196 549.81 223.293 549.543 223.378C549.282 223.463 548.978 223.54 548.631 223.608C548.29 223.67 547.95 223.724 547.609 223.77C547.268 223.815 546.961 223.855 546.688 223.889C545.95 223.98 545.319 224.122 544.796 224.315C544.273 224.509 543.873 224.776 543.594 225.116C543.316 225.452 543.177 225.884 543.177 226.412C543.177 227.207 543.461 227.824 544.029 228.261C544.597 228.693 545.31 228.909 546.168 228.909ZM555.667 230V216.909H557.141V218.92H557.278C557.539 218.244 557.974 217.713 558.582 217.327C559.195 216.935 559.931 216.739 560.789 216.739C561.692 216.739 562.434 216.952 563.013 217.378C563.599 217.798 564.036 218.378 564.326 219.116H564.437C564.732 218.389 565.212 217.812 565.877 217.386C566.548 216.955 567.36 216.739 568.315 216.739C569.531 216.739 570.491 217.122 571.195 217.889C571.9 218.651 572.252 219.764 572.252 221.23V230H570.735V221.23C570.735 220.196 570.471 219.42 569.942 218.903C569.414 218.386 568.718 218.128 567.854 218.128C566.854 218.128 566.085 218.435 565.545 219.048C565.005 219.662 564.735 220.44 564.735 221.384V230H563.184V221.094C563.184 220.207 562.937 219.491 562.442 218.946C561.948 218.401 561.252 218.128 560.354 218.128C559.752 218.128 559.21 218.276 558.727 218.571C558.249 218.866 557.871 219.278 557.593 219.807C557.32 220.33 557.184 220.932 557.184 221.614V230H555.667ZM576.268 230V216.909H577.743V218.92H577.879C578.141 218.244 578.575 217.713 579.183 217.327C579.797 216.935 580.533 216.739 581.391 216.739C582.294 216.739 583.036 216.952 583.615 217.378C584.2 217.798 584.638 218.378 584.928 219.116H585.038C585.334 218.389 585.814 217.812 586.479 217.386C587.149 216.955 587.962 216.739 588.916 216.739C590.132 216.739 591.092 217.122 591.797 217.889C592.501 218.651 592.854 219.764 592.854 221.23V230H591.337V221.23C591.337 220.196 591.072 219.42 590.544 218.903C590.016 218.386 589.32 218.128 588.456 218.128C587.456 218.128 586.686 218.435 586.146 219.048C585.607 219.662 585.337 220.44 585.337 221.384V230H583.786V221.094C583.786 220.207 583.538 219.491 583.044 218.946C582.55 218.401 581.854 218.128 580.956 218.128C580.354 218.128 579.811 218.276 579.328 218.571C578.851 218.866 578.473 219.278 578.195 219.807C577.922 220.33 577.786 220.932 577.786 221.614V230H576.268ZM596.887 230V216.909H598.413V230H596.887ZM597.663 214.659C597.35 214.659 597.083 214.554 596.862 214.344C596.64 214.128 596.529 213.869 596.529 213.568C596.529 213.267 596.64 213.011 596.862 212.801C597.083 212.585 597.35 212.477 597.663 212.477C597.975 212.477 598.242 212.585 598.464 212.801C598.685 213.011 598.796 213.267 598.796 213.568C598.796 213.869 598.685 214.128 598.464 214.344C598.242 214.554 597.975 214.659 597.663 214.659ZM603.942 221.818V230H602.425V216.909H603.899V218.963H604.036C604.342 218.293 604.82 217.756 605.467 217.352C606.121 216.943 606.928 216.739 607.888 216.739C608.768 216.739 609.541 216.923 610.206 217.293C610.876 217.656 611.396 218.193 611.766 218.903C612.141 219.614 612.328 220.486 612.328 221.52V230H610.811V221.614C610.811 220.54 610.51 219.69 609.908 219.065C609.311 218.44 608.51 218.128 607.504 218.128C606.817 218.128 606.206 218.276 605.672 218.571C605.138 218.866 604.714 219.293 604.402 219.849C604.095 220.401 603.942 221.057 603.942 221.818ZM621.317 235.182C620.425 235.182 619.644 235.065 618.974 234.832C618.303 234.605 617.738 234.293 617.278 233.895C616.817 233.497 616.46 233.051 616.204 232.557L617.448 231.739C617.636 232.068 617.886 232.392 618.198 232.71C618.516 233.028 618.928 233.293 619.434 233.503C619.945 233.713 620.573 233.818 621.317 233.818C622.477 233.818 623.411 233.528 624.121 232.949C624.837 232.369 625.195 231.469 625.195 230.247V227.298H625.059C624.883 227.696 624.63 228.094 624.3 228.491C623.971 228.884 623.539 229.21 623.005 229.472C622.477 229.733 621.82 229.864 621.036 229.864C619.991 229.864 619.062 229.605 618.249 229.088C617.442 228.571 616.806 227.832 616.34 226.872C615.88 225.906 615.65 224.756 615.65 223.42C615.65 222.097 615.874 220.932 616.323 219.926C616.778 218.92 617.411 218.136 618.224 217.574C619.036 217.011 619.982 216.73 621.062 216.73C621.863 216.73 622.528 216.872 623.056 217.156C623.585 217.435 624.008 217.781 624.326 218.196C624.65 218.611 624.903 219.014 625.085 219.406H625.238V216.909H626.721V230.341C626.721 231.449 626.485 232.361 626.013 233.077C625.542 233.793 624.9 234.321 624.087 234.662C623.275 235.009 622.352 235.182 621.317 235.182ZM621.215 228.474C622.056 228.474 622.775 228.273 623.371 227.869C623.968 227.46 624.425 226.875 624.744 226.114C625.062 225.352 625.221 224.446 625.221 223.395C625.221 222.372 625.065 221.466 624.752 220.676C624.44 219.881 623.985 219.256 623.388 218.801C622.798 218.341 622.073 218.111 621.215 218.111C620.34 218.111 619.602 218.347 618.999 218.818C618.397 219.29 617.942 219.926 617.636 220.727C617.329 221.523 617.175 222.412 617.175 223.395C617.175 224.395 617.332 225.278 617.644 226.045C617.957 226.807 618.414 227.403 619.016 227.835C619.619 228.261 620.352 228.474 621.215 228.474ZM641.143 230.298C640.354 230.298 639.632 230.145 638.979 229.838C638.325 229.526 637.805 229.077 637.419 228.491C637.033 227.901 636.839 227.185 636.839 226.344C636.839 225.696 636.962 225.151 637.206 224.707C637.45 224.264 637.797 223.901 638.246 223.616C638.695 223.332 639.226 223.108 639.839 222.943C640.453 222.778 641.129 222.651 641.868 222.56C642.601 222.469 643.22 222.389 643.726 222.321C644.237 222.253 644.626 222.145 644.893 221.997C645.161 221.849 645.294 221.611 645.294 221.281V220.974C645.294 220.082 645.027 219.381 644.493 218.869C643.964 218.352 643.203 218.094 642.209 218.094C641.266 218.094 640.496 218.301 639.899 218.716C639.308 219.131 638.893 219.619 638.655 220.182L637.214 219.662C637.51 218.946 637.919 218.375 638.442 217.949C638.964 217.517 639.55 217.207 640.197 217.02C640.845 216.827 641.501 216.73 642.166 216.73C642.666 216.73 643.186 216.795 643.726 216.926C644.271 217.057 644.777 217.284 645.243 217.608C645.709 217.926 646.087 218.372 646.376 218.946C646.666 219.514 646.811 220.236 646.811 221.111V230H645.294V227.929H645.2C645.018 228.315 644.749 228.69 644.391 229.054C644.033 229.418 643.584 229.716 643.044 229.949C642.504 230.182 641.871 230.298 641.143 230.298ZM641.348 228.909C642.155 228.909 642.854 228.73 643.445 228.372C644.036 228.014 644.49 227.54 644.808 226.949C645.132 226.352 645.294 225.696 645.294 224.98V223.088C645.18 223.196 644.99 223.293 644.723 223.378C644.462 223.463 644.158 223.54 643.811 223.608C643.47 223.67 643.129 223.724 642.788 223.77C642.447 223.815 642.141 223.855 641.868 223.889C641.129 223.98 640.499 224.122 639.976 224.315C639.453 224.509 639.053 224.776 638.774 225.116C638.496 225.452 638.357 225.884 638.357 226.412C638.357 227.207 638.641 227.824 639.209 228.261C639.777 228.693 640.49 228.909 641.348 228.909ZM659.642 219.781L658.253 220.173C658.116 219.781 657.923 219.426 657.673 219.108C657.423 218.79 657.097 218.537 656.693 218.349C656.295 218.162 655.801 218.068 655.21 218.068C654.324 218.068 653.597 218.278 653.028 218.699C652.46 219.119 652.176 219.662 652.176 220.327C652.176 220.889 652.369 221.347 652.756 221.699C653.148 222.045 653.75 222.321 654.562 222.526L656.54 223.011C657.636 223.278 658.457 223.702 659.003 224.281C659.554 224.861 659.83 225.588 659.83 226.463C659.83 227.202 659.625 227.858 659.216 228.432C658.807 229.006 658.236 229.457 657.503 229.787C656.776 230.111 655.932 230.273 654.972 230.273C653.693 230.273 652.639 229.986 651.81 229.412C650.98 228.832 650.449 227.997 650.216 226.906L651.673 226.548C651.861 227.327 652.227 227.915 652.773 228.312C653.324 228.71 654.048 228.909 654.946 228.909C655.952 228.909 656.756 228.685 657.358 228.236C657.96 227.781 658.261 227.213 658.261 226.531C658.261 226.003 658.085 225.56 657.733 225.202C657.381 224.838 656.847 224.571 656.131 224.401L653.991 223.889C652.855 223.616 652.014 223.185 651.469 222.594C650.923 222.003 650.651 221.27 650.651 220.395C650.651 219.673 650.847 219.04 651.239 218.494C651.631 217.943 652.17 217.511 652.858 217.199C653.545 216.886 654.33 216.73 655.21 216.73C656.409 216.73 657.366 217.003 658.082 217.548C658.804 218.088 659.324 218.832 659.642 219.781ZM671.947 219.781L670.558 220.173C670.421 219.781 670.228 219.426 669.978 219.108C669.728 218.79 669.401 218.537 668.998 218.349C668.6 218.162 668.106 218.068 667.515 218.068C666.629 218.068 665.901 218.278 665.333 218.699C664.765 219.119 664.481 219.662 664.481 220.327C664.481 220.889 664.674 221.347 665.06 221.699C665.452 222.045 666.055 222.321 666.867 222.526L668.844 223.011C669.941 223.278 670.762 223.702 671.308 224.281C671.859 224.861 672.134 225.588 672.134 226.463C672.134 227.202 671.93 227.858 671.521 228.432C671.112 229.006 670.54 229.457 669.808 229.787C669.08 230.111 668.237 230.273 667.276 230.273C665.998 230.273 664.944 229.986 664.114 229.412C663.285 228.832 662.754 227.997 662.521 226.906L663.978 226.548C664.165 227.327 664.532 227.915 665.077 228.312C665.629 228.71 666.353 228.909 667.251 228.909C668.256 228.909 669.06 228.685 669.663 228.236C670.265 227.781 670.566 227.213 670.566 226.531C670.566 226.003 670.39 225.56 670.038 225.202C669.685 224.838 669.151 224.571 668.435 224.401L666.296 223.889C665.16 223.616 664.319 223.185 663.773 222.594C663.228 222.003 662.955 221.27 662.955 220.395C662.955 219.673 663.151 219.04 663.543 218.494C663.935 217.943 664.475 217.511 665.163 217.199C665.85 216.886 666.634 216.73 667.515 216.73C668.714 216.73 669.671 217.003 670.387 217.548C671.109 218.088 671.629 218.832 671.947 219.781ZM680.544 230.273C679.413 230.273 678.413 229.986 677.544 229.412C676.68 228.838 676.004 228.045 675.516 227.034C675.027 226.017 674.783 224.844 674.783 223.514C674.783 222.173 675.027 220.994 675.516 219.977C676.004 218.955 676.68 218.159 677.544 217.591C678.413 217.017 679.413 216.73 680.544 216.73C681.675 216.73 682.672 217.017 683.536 217.591C684.399 218.165 685.075 218.96 685.564 219.977C686.058 220.994 686.305 222.173 686.305 223.514C686.305 224.844 686.061 226.017 685.572 227.034C685.084 228.045 684.405 228.838 683.536 229.412C682.672 229.986 681.675 230.273 680.544 230.273ZM680.544 228.884C681.453 228.884 682.223 228.639 682.854 228.151C683.484 227.662 683.962 227.011 684.286 226.199C684.615 225.386 684.78 224.491 684.78 223.514C684.78 222.537 684.615 221.639 684.286 220.821C683.962 220.003 683.484 219.347 682.854 218.852C682.223 218.358 681.453 218.111 680.544 218.111C679.641 218.111 678.871 218.358 678.234 218.852C677.604 219.347 677.124 220.003 676.794 220.821C676.47 221.639 676.308 222.537 676.308 223.514C676.308 224.491 676.47 225.386 676.794 226.199C677.124 227.011 677.604 227.662 678.234 228.151C678.865 228.639 679.635 228.884 680.544 228.884ZM694.749 230.273C693.579 230.273 692.559 229.98 691.69 229.395C690.826 228.81 690.156 228.009 689.678 226.991C689.201 225.974 688.962 224.815 688.962 223.514C688.962 222.202 689.204 221.034 689.687 220.011C690.175 218.989 690.852 218.187 691.715 217.608C692.579 217.023 693.582 216.73 694.724 216.73C695.599 216.73 696.391 216.901 697.102 217.241C697.812 217.577 698.397 218.051 698.857 218.665C699.323 219.273 699.616 219.983 699.735 220.795H698.201C698.042 220.057 697.658 219.426 697.05 218.903C696.448 218.375 695.681 218.111 694.749 218.111C693.914 218.111 693.175 218.338 692.533 218.793C691.891 219.241 691.388 219.869 691.025 220.676C690.667 221.477 690.488 222.406 690.488 223.463C690.488 224.526 690.664 225.466 691.016 226.284C691.369 227.097 691.863 227.733 692.499 228.193C693.141 228.653 693.891 228.884 694.749 228.884C695.329 228.884 695.857 228.776 696.335 228.56C696.817 228.338 697.221 228.026 697.545 227.622C697.874 227.219 698.096 226.739 698.21 226.182H699.744C699.63 226.972 699.349 227.676 698.9 228.295C698.457 228.909 697.88 229.392 697.17 229.744C696.465 230.097 695.658 230.273 694.749 230.273ZM703.012 230V216.909H704.538V230H703.012ZM703.788 214.659C703.475 214.659 703.208 214.554 702.987 214.344C702.765 214.128 702.654 213.869 702.654 213.568C702.654 213.267 702.765 213.011 702.987 212.801C703.208 212.585 703.475 212.477 703.788 212.477C704.1 212.477 704.367 212.585 704.589 212.801C704.81 213.011 704.921 213.267 704.921 213.568C704.921 213.869 704.81 214.128 704.589 214.344C704.367 214.554 704.1 214.659 703.788 214.659ZM712.206 230.298C711.416 230.298 710.695 230.145 710.041 229.838C709.388 229.526 708.868 229.077 708.482 228.491C708.095 227.901 707.902 227.185 707.902 226.344C707.902 225.696 708.024 225.151 708.268 224.707C708.513 224.264 708.859 223.901 709.308 223.616C709.757 223.332 710.288 223.108 710.902 222.943C711.516 222.778 712.192 222.651 712.93 222.56C713.663 222.469 714.283 222.389 714.788 222.321C715.3 222.253 715.689 222.145 715.956 221.997C716.223 221.849 716.357 221.611 716.357 221.281V220.974C716.357 220.082 716.089 219.381 715.555 218.869C715.027 218.352 714.266 218.094 713.271 218.094C712.328 218.094 711.558 218.301 710.962 218.716C710.371 219.131 709.956 219.619 709.717 220.182L708.277 219.662C708.572 218.946 708.982 218.375 709.504 217.949C710.027 217.517 710.612 217.207 711.26 217.02C711.908 216.827 712.564 216.73 713.229 216.73C713.729 216.73 714.249 216.795 714.788 216.926C715.334 217.057 715.839 217.284 716.305 217.608C716.771 217.926 717.149 218.372 717.439 218.946C717.729 219.514 717.874 220.236 717.874 221.111V230H716.357V227.929H716.263C716.081 228.315 715.811 228.69 715.453 229.054C715.095 229.418 714.646 229.716 714.107 229.949C713.567 230.182 712.933 230.298 712.206 230.298ZM712.411 228.909C713.217 228.909 713.916 228.73 714.507 228.372C715.098 228.014 715.553 227.54 715.871 226.949C716.195 226.352 716.357 225.696 716.357 224.98V223.088C716.243 223.196 716.053 223.293 715.786 223.378C715.524 223.463 715.22 223.54 714.874 223.608C714.533 223.67 714.192 223.724 713.851 223.77C713.51 223.815 713.203 223.855 712.93 223.889C712.192 223.98 711.561 224.122 711.038 224.315C710.516 224.509 710.115 224.776 709.837 225.116C709.558 225.452 709.419 225.884 709.419 226.412C709.419 227.207 709.703 227.824 710.271 228.261C710.839 228.693 711.553 228.909 712.411 228.909ZM727.065 216.909V218.23H720.818V216.909H727.065ZM722.77 213.773H724.295V226.582C724.295 227.128 724.389 227.557 724.577 227.869C724.764 228.176 725.009 228.395 725.31 228.526C725.611 228.651 725.932 228.713 726.273 228.713C726.472 228.713 726.642 228.702 726.784 228.679C726.926 228.651 727.051 228.622 727.159 228.594L727.483 229.966C727.335 230.023 727.153 230.074 726.938 230.119C726.722 230.17 726.455 230.196 726.136 230.196C725.58 230.196 725.043 230.074 724.526 229.83C724.014 229.585 723.594 229.222 723.264 228.739C722.935 228.256 722.77 227.656 722.77 226.94V213.773ZM730.528 230V216.909H732.053V230H730.528ZM731.303 214.659C730.991 214.659 730.724 214.554 730.502 214.344C730.281 214.128 730.17 213.869 730.17 213.568C730.17 213.267 730.281 213.011 730.502 212.801C730.724 212.585 730.991 212.477 731.303 212.477C731.616 212.477 731.883 212.585 732.104 212.801C732.326 213.011 732.437 213.267 732.437 213.568C732.437 213.869 732.326 214.128 732.104 214.344C731.883 214.554 731.616 214.659 731.303 214.659ZM741.153 230.273C740.023 230.273 739.023 229.986 738.153 229.412C737.29 228.838 736.614 228.045 736.125 227.034C735.636 226.017 735.392 224.844 735.392 223.514C735.392 222.173 735.636 220.994 736.125 219.977C736.614 218.955 737.29 218.159 738.153 217.591C739.023 217.017 740.023 216.73 741.153 216.73C742.284 216.73 743.281 217.017 744.145 217.591C745.009 218.165 745.685 218.96 746.173 219.977C746.668 220.994 746.915 222.173 746.915 223.514C746.915 224.844 746.67 226.017 746.182 227.034C745.693 228.045 745.014 228.838 744.145 229.412C743.281 229.986 742.284 230.273 741.153 230.273ZM741.153 228.884C742.063 228.884 742.832 228.639 743.463 228.151C744.094 227.662 744.571 227.011 744.895 226.199C745.224 225.386 745.389 224.491 745.389 223.514C745.389 222.537 745.224 221.639 744.895 220.821C744.571 220.003 744.094 219.347 743.463 218.852C742.832 218.358 742.063 218.111 741.153 218.111C740.25 218.111 739.48 218.358 738.844 218.852C738.213 219.347 737.733 220.003 737.403 220.821C737.08 221.639 736.918 222.537 736.918 223.514C736.918 224.491 737.08 225.386 737.403 226.199C737.733 227.011 738.213 227.662 738.844 228.151C739.474 228.639 740.244 228.884 741.153 228.884ZM751.762 221.818V230H750.245V216.909H751.719V218.963H751.856C752.163 218.293 752.64 217.756 753.288 217.352C753.941 216.943 754.748 216.739 755.708 216.739C756.589 216.739 757.362 216.923 758.026 217.293C758.697 217.656 759.217 218.193 759.586 218.903C759.961 219.614 760.148 220.486 760.148 221.52V230H758.631V221.614C758.631 220.54 758.33 219.69 757.728 219.065C757.131 218.44 756.33 218.128 755.325 218.128C754.637 218.128 754.026 218.276 753.492 218.571C752.958 218.866 752.535 219.293 752.222 219.849C751.915 220.401 751.762 221.057 751.762 221.818ZM767.825 222.636C767.825 224.682 767.567 226.614 767.05 228.432C766.533 230.25 765.791 231.955 764.825 233.545H763.445C763.859 232.875 764.237 232.116 764.578 231.27C764.925 230.423 765.223 229.52 765.473 228.56C765.723 227.599 765.916 226.616 766.053 225.611C766.189 224.605 766.257 223.614 766.257 222.636C766.257 221.324 766.138 220 765.899 218.665C765.661 217.33 765.328 216.062 764.902 214.864C764.482 213.665 763.996 212.619 763.445 211.727H764.825C765.791 213.324 766.533 215.031 767.05 216.849C767.567 218.668 767.825 220.597 767.825 222.636Z" fill="black"/>
</svg>
